<?xml version="1.0" encoding="UTF-8" standalone="no"?>
<!DOCTYPE svg PUBLIC "-//W3C//DTD SVG 1.1//EN" "http://www.w3.org/Graphics/SVG/1.1/DTD/svg11.dtd">
<svg width="100%" height="100%" viewBox="0 0 512 512" version="1.1" xmlns="http://www.w3.org/2000/svg" xmlns:xlink="http://www.w3.org/1999/xlink" xml:space="preserve" xmlns:serif="http://www.serif.com/" style="fill-rule:evenodd;clip-rule:evenodd;stroke-linejoin:round;stroke-miterlimit:2;">
    <g transform="matrix(1,0,0,1.41444,0,-13.5437)">
        <path d="M512,49.167C512,27.316 486.907,9.575 456,9.575L56,9.575C25.093,9.575 0,27.316 0,49.167L0,128.351C0,150.202 25.093,167.942 56,167.942L456,167.942C486.907,167.942 512,150.202 512,128.351L512,49.167ZM480,49.167L480,128.351C480,137.715 469.246,145.318 456,145.318L56,145.318C42.754,145.318 32,137.715 32,128.351L32,49.167C32,39.802 42.754,32.199 56,32.199L456,32.199C469.246,32.199 480,39.802 480,49.167Z" style="fill:rgba(28,27,33);"/>
    </g>
    <g transform="matrix(1,0,0,1.41444,0,274.456)">
        <path d="M512,49.167C512,27.316 486.907,9.575 456,9.575L56,9.575C25.093,9.575 0,27.316 0,49.167L0,128.351C0,150.202 25.093,167.942 56,167.942L456,167.942C486.907,167.942 512,150.202 512,128.351L512,49.167ZM480,49.167L480,128.351C480,137.715 469.246,145.318 456,145.318L56,145.318C42.754,145.318 32,137.715 32,128.351L32,49.167C32,39.802 42.754,32.199 56,32.199L456,32.199C469.246,32.199 480,39.802 480,49.167Z" style="fill:rgba(28,27,33);"/>
    </g>
</svg>
