<?xml version="1.0" encoding="UTF-8" standalone="no"?>
<!DOCTYPE svg PUBLIC "-//W3C//DTD SVG 1.1//EN" "http://www.w3.org/Graphics/SVG/1.1/DTD/svg11.dtd">
<svg width="100%" height="100%" viewBox="0 0 512 512" version="1.1" xmlns="http://www.w3.org/2000/svg" xmlns:xlink="http://www.w3.org/1999/xlink" xml:space="preserve" xmlns:serif="http://www.serif.com/" style="fill-rule:evenodd;clip-rule:evenodd;stroke-linejoin:round;stroke-miterlimit:2;">
    <g transform="matrix(0.924232,0,0,0.932761,45.7372,50.4945)">
        <path d="M326.632,10.346C287.899,10.346 251.641,27.883 227.5,57.266C203.359,27.882 167.102,10.346 128.368,10.346C57.586,10.346 0,67.931 0,138.714C0,194.14 33.05,258.249 98.23,329.26C148.391,383.907 202.958,426.219 218.487,437.886L227.497,444.655L236.507,437.887C252.036,426.22 306.605,383.909 356.767,329.262C421.949,258.251 455,194.141 455,138.714C455,67.931 397.414,10.346 326.632,10.346ZM334.666,308.974C293.407,353.922 249.018,390.257 227.497,407.003C205.977,390.257 161.59,353.921 120.331,308.973C61.236,244.592 30,185.717 30,138.714C30,84.474 74.128,40.346 128.368,40.346C164.062,40.346 197.02,59.8 214.381,91.117L227.5,114.783L240.619,91.117C257.979,59.801 290.937,40.346 326.632,40.346C380.872,40.346 425,84.473 425,138.714C425,185.719 393.763,244.594 334.666,308.974Z" style="fill:rgb(91,91,101);fill-rule:nonzero;"/>
    </g>
</svg>