<?xml version="1.0" encoding="UTF-8" standalone="no"?>
<!DOCTYPE svg PUBLIC "-//W3C//DTD SVG 1.1//EN" "http://www.w3.org/Graphics/SVG/1.1/DTD/svg11.dtd">
<svg width="100%" height="100%" viewBox="0 0 512 512" version="1.1" xmlns="http://www.w3.org/2000/svg" xmlns:xlink="http://www.w3.org/1999/xlink" xml:space="preserve" xmlns:serif="http://www.serif.com/" style="fill-rule:evenodd;clip-rule:evenodd;stroke-linejoin:round;stroke-miterlimit:2;">
    <g transform="matrix(1.04703,0,0,1.04703,0,0)">
        <path d="M244.5,0C109.3,0 0,109.3 0,244.5C0,379.7 109.3,489 244.5,489C379.7,489 489,379.8 489,244.5C489,109.2 379.8,0 244.5,0ZM265.3,447.4L265.3,437C265.3,425.6 255.9,416.2 244.5,416.2C233.1,416.2 223.7,425.6 223.7,437L223.7,447.4C127.9,437.6 51.4,361.1 41.7,265.4L51,265.4C62.4,265.4 71.8,256 71.8,244.6C71.8,233.2 62.4,223.8 51,223.8L41.7,223.8C51.5,128 128,51.5 223.7,41.8L223.7,51C223.7,62.4 233.1,71.8 244.5,71.8C255.9,71.8 265.3,62.4 265.3,51L265.3,41.7C361.1,51.5 437.6,128 447.3,223.7L437,223.7C425.6,223.7 416.2,233.1 416.2,244.5C416.2,255.9 425.6,265.3 437,265.3L447.4,265.3C437.6,361.1 361.1,437.6 265.3,447.4Z" style="fill-rule:nonzero;"/>
    </g>
    <g transform="matrix(1.04703,0,0,1.04703,0,0)">
        <path d="M244.5,124.9C233.1,124.9 223.7,134.3 223.7,145.7L223.7,237.2L129,353.8C121.7,363.2 123.8,375.6 132.1,382.9C143.7,391.4 156,385 160.2,379.8L261.2,257C263.3,253.9 265.4,249.7 265.4,244.5L265.4,145.7C265.3,134.2 256,124.9 244.5,124.9Z" style="fill-rule:nonzero;"/>
    </g>
</svg>