<?xml version="1.0" encoding="UTF-8" standalone="no"?>
<!DOCTYPE svg PUBLIC "-//W3C//DTD SVG 1.1//EN" "http://www.w3.org/Graphics/SVG/1.1/DTD/svg11.dtd">
<svg width="100%" height="100%" viewBox="0 0 512 512" version="1.1" xmlns="http://www.w3.org/2000/svg" xmlns:xlink="http://www.w3.org/1999/xlink" xml:space="preserve" xmlns:serif="http://www.serif.com/" style="fill-rule:evenodd;clip-rule:evenodd;stroke-linejoin:round;stroke-miterlimit:2;">
    <g transform="matrix(1.04918,0,0,1.04918,1.39779e-15,-566.935)">
        <path d="M244,601.36C143.1,601.36 61,683.46 61,784.36C61,885.26 143.1,967.36 244,967.36C344.9,967.36 427,885.26 427,784.36C427,683.46 344.9,601.36 244,601.36ZM244,947.36C154.1,947.36 81,874.26 81,784.36C81,694.46 154.1,621.36 244,621.36C333.9,621.36 407,694.46 407,784.36C407,874.26 333.9,947.36 244,947.36Z" style="fill:white;"/>
    </g>
    <g transform="matrix(1.04918,0,0,1.04918,1.39779e-15,-566.935)">
        <path d="M416.4,611.96C370.2,565.76 309,540.36 244,540.36C179,540.36 117.8,565.76 71.6,611.96C25.4,658.16 -0,719.36 -0,784.36C-0,849.36 25.4,910.56 71.6,956.76C117.8,1002.96 179,1028.36 244,1028.36C309,1028.36 370.2,1002.96 416.4,956.76C462.6,910.56 488,849.36 488,784.36C488,719.36 462.6,658.16 416.4,611.96ZM244,1008.36C120.5,1008.36 20,907.86 20,784.36C20,660.86 120.5,560.36 244,560.36C367.5,560.36 468,660.86 468,784.36C468,907.86 367.5,1008.36 244,1008.36Z" style="fill:white;"/>
    </g>
    <g transform="matrix(1.04918,0,0,1.04918,1.39779e-15,-566.935)">
        <path d="M333.7,713.56L217.1,734.16C214.4,734.66 212,736.26 210.5,738.56L144.2,839.96C142,843.26 142,847.66 144.2,850.96C146.1,853.76 149.2,855.46 152.5,855.46C153.1,855.46 153.7,855.36 154.2,855.26L270.8,834.66C273.5,834.16 275.9,832.56 277.4,830.26L343.7,728.86C346,725.56 346,721.16 343.8,717.86C341.6,714.56 337.6,712.86 333.7,713.56ZM173.6,831.46L218.6,762.56L252.9,817.46L173.6,831.46ZM269.4,806.16L235.1,751.26L314.4,737.26L269.4,806.16Z" style="fill:white;"/>
    </g>
</svg>
