<?xml version="1.0" encoding="UTF-8" standalone="no"?>
<!DOCTYPE svg PUBLIC "-//W3C//DTD SVG 1.1//EN" "http://www.w3.org/Graphics/SVG/1.1/DTD/svg11.dtd">
<svg width="100%" height="100%" viewBox="0 0 512 512" version="1.1" xmlns="http://www.w3.org/2000/svg" xmlns:xlink="http://www.w3.org/1999/xlink" xml:space="preserve" xmlns:serif="http://www.serif.com/" style="fill-rule:evenodd;clip-rule:evenodd;stroke-linejoin:round;stroke-miterlimit:2;">
    <path d="M44.744,440.81C54.647,445.423 65.688,448 77.326,448L434.674,448C477.352,448 512,413.352 512,370.674L512,216.023C512,173.346 477.352,138.697 434.674,138.697L256,138.697L256,123.763C256,88.44 227.323,59.763 192,59.763L64,59.763C28.677,59.763 0,88.44 0,123.763L0,379.763C0,408.378 18.82,432.632 44.744,440.81ZM58.256,411.803C56.996,411.216 55.698,410.711 54.371,410.293C41.408,406.203 32,394.072 32,379.763L32,123.763C32,106.102 46.339,91.763 64,91.763C64,91.763 192,91.763 192,91.763C209.661,91.763 224,106.102 224,123.763L224,138.697C224,156.37 238.327,170.697 256,170.697L434.674,170.697C459.69,170.697 480,191.007 480,216.023L480,370.674C480,395.69 459.69,416 434.674,416L77.326,416C70.515,416 64.051,414.503 58.256,411.803Z" style="fill:rgba(100,251,218);"/>
</svg>