<?xml version="1.0" encoding="UTF-8" standalone="no"?>
<!DOCTYPE svg PUBLIC "-//W3C//DTD SVG 1.1//EN" "http://www.w3.org/Graphics/SVG/1.1/DTD/svg11.dtd">
<svg width="100%" height="100%" viewBox="0 0 512 512" version="1.1" xmlns="http://www.w3.org/2000/svg" xmlns:xlink="http://www.w3.org/1999/xlink" xml:space="preserve" xmlns:serif="http://www.serif.com/" style="fill-rule:evenodd;clip-rule:evenodd;stroke-linejoin:round;stroke-miterlimit:2;">
    <path d="M289.152,56.789C307.562,39.531 335.999,39.616 354.325,56.363L356.991,59.008L458.645,167.488C461.205,170.218 463.445,173.248 465.301,176.49C477.887,198.506 471.103,226.304 450.346,240.192L447.445,241.984L342.975,301.674C340.458,303.125 338.41,305.194 336.981,307.69L336.063,309.632L297.621,405.93C293.632,415.893 281.365,419.029 273.13,412.799L271.445,411.306L202.368,342.271L96.747,448.063L74.027,447.999L74.069,425.493L179.733,319.637L111.36,251.306C103.787,243.733 105.728,231.21 114.709,226.112L116.736,225.152L212.629,186.816C215.445,185.685 217.856,183.808 219.626,181.397L220.821,179.477L279.616,69.227C282.09,64.597 285.312,60.395 289.152,56.789Z"/>
</svg>